<svg xmlns="http://www.w3.org/2000/svg" viewBox="0 0 340 100">
    <path fill-rule="evenodd" clip-rule="evenodd" d="M336.54 31.686c-4.787-12.966-15.085-23.233-28.07-27.98C297.444 0 290.26 0 264.65 0h-189-.004C50.04 0 42.856 0 31.83 3.707 18.798 8.47 8.47 18.797 3.708 31.83.03 42.77 0 49.93 0 75.054v2.252c0 7.683 0 9.838 1.112 13.146 1.43 3.91 4.527 7.01 8.437 8.438C12.856 100 15.01 100 22.694 100H264.65c25.61 0 32.795 0 43.82-3.707 12.986-4.746 23.284-15.015 28.07-27.982C338.773 62.64 340 56.465 340 50c0-6.465-1.227-12.643-3.46-18.314zM80 52.436c0 2.56 0 3.278-.37 4.38-.477 1.304-1.51 2.337-2.813 2.813-1.103.37-1.82.37-4.382.37h-4.87c-2.56 0-3.28 0-4.382.37-1.303.477-2.336 1.51-2.812 2.813-.37 1.103-.37 1.82-.37 4.382v4.87c0 2.56 0 3.28-.37 4.382-.477 1.303-1.51 2.336-2.813 2.812-1.103.37-1.82.37-4.382.37h-4.87c-2.56 0-3.28 0-4.382-.37-1.303-.477-2.336-1.51-2.812-2.813-.37-1.103-.37-1.82-.37-4.382v-4.87c0-2.56 0-3.28-.37-4.382-.477-1.303-1.51-2.336-2.813-2.812-1.103-.37-1.82-.37-4.382-.37h-4.87c-2.56 0-3.28 0-4.382-.37-1.303-.477-2.336-1.51-2.812-2.813-.37-1.103-.37-1.82-.37-4.382v-4.87c0-2.56 0-3.28.37-4.382.477-1.303 1.51-2.336 2.813-2.812 1.103-.37 1.82-.37 4.382-.37h4.87c2.56 0 3.28 0 4.382-.37 1.303-.477 2.336-1.51 2.812-2.813.37-1.103.37-1.82.37-4.382v-4.87c0-2.56 0-3.28.37-4.382.477-1.303 1.51-2.336 2.813-2.812 1.103-.37 1.82-.37 4.382-.37h4.87c2.56 0 3.28 0 4.382.37 1.303.477 2.336 1.51 2.812 2.813.37 1.103.37 1.82.37 4.382v4.87c0 2.56 0 3.28.37 4.382.477 1.303 1.51 2.336 2.813 2.812 1.103.37 1.82.37 4.382.37h4.87c2.56 0 3.28 0 4.382.37 1.303.477 2.336 1.51 2.812 2.813.37 1.103.37 1.82.37 4.382v4.87zM130 80c-16.57 0-30-13.43-30-30s13.43-30 30-30 30 13.43 30 30-13.43 30-30 30zm110-27.565c0 2.56 0 3.28-.37 4.382-.477 1.303-1.51 2.336-2.813 2.812-1.103.37-1.82.37-4.382.37h-4.87c-2.56 0-3.28 0-4.382.37-1.303.477-2.336 1.51-2.812 2.813-.37 1.103-.37 1.82-.37 4.382v4.87c0 2.56 0 3.28-.37 4.382-.477 1.303-1.51 2.336-2.813 2.812-1.103.37-1.82.37-4.382.37h-4.87c-2.56 0-3.28 0-4.382-.37-1.303-.477-2.336-1.51-2.812-2.813-.37-1.103-.37-1.82-.37-4.382v-4.87c0-2.56 0-3.28-.37-4.382-.477-1.303-1.51-2.336-2.813-2.812-1.103-.37-1.82-.37-4.382-.37h-4.87c-2.56 0-3.28 0-4.382-.37-1.303-.477-2.336-1.51-2.812-2.813-.37-1.103-.37-1.82-.37-4.382v-4.87c0-2.56 0-3.28.37-4.382.477-1.303 1.51-2.336 2.813-2.812 1.103-.37 1.82-.37 4.382-.37h4.87c2.56 0 3.28 0 4.382-.37 1.303-.477 2.336-1.51 2.812-2.813.37-1.103.37-1.82.37-4.382v-4.87c0-2.56 0-3.28.37-4.382.477-1.303 1.51-2.336 2.813-2.812 1.103-.37 1.82-.37 4.382-.37h4.87c2.56 0 3.28 0 4.382.37 1.303.477 2.336 1.51 2.812 2.813.37 1.103.37 1.82.37 4.382v4.87c0 2.56 0 3.28.37 4.382.477 1.303 1.51 2.336 2.813 2.812 1.103.37 1.82.37 4.382.37h4.87c2.56 0 3.28 0 4.382.37 1.303.477 2.336 1.51 2.812 2.813.37 1.103.37 1.82.37 4.382v4.87zM290 80c-16.57 0-30-13.43-30-30s13.43-30 30-30 30 13.43 30 30-13.43 30-30 30zM140 50c0 5.523-4.477 10-10 10s-10-4.477-10-10 4.477-10 10-10 10 4.477 10 10zm160 0c0 5.523-4.477 10-10 10s-10-4.477-10-10 4.477-10 10-10 10 4.477 10 10z"/>
</svg>
